# xmcd
#
# Track frame offsets: 
#        150
#        5922
#        16277
#        30197
#        44832
#        61387
#        78195
#        90932
#        102505
#        114717
#        133580
#        145232
#        159387
#        169990
#        180010
#
# Disc length: 2531 seconds
#
# Revision: 0
# Processed by: cddbd v1.5.2PL0 Copyright (c) Steve Scherf et al.
# Submitted via: ExactAudioCopy v1.3
#
DISCID=b909e10f
DTITLE=Lester Flatt - Lester Flatt Live!
DYEAR=1997
DGENRE=Bluegrass
TTITLE0=Foggy Mountain Breakdown
TTITLE1=Lost All My Money
TTITLE2=Homestead on the Farm
TTITLE3=Rawhide
TTITLE4=Wabash Cannon Ball
TTITLE5=Orange Blossom Special
TTITLE6=Nine Pound Hammer
TTITLE7=Flint Hill Special
TTITLE8=Get In Line Brother
TTITLE9=Blue Moon of Kentucky
TTITLE10=Will You Be Loving Another man
TTITLE11=My Little Cabin Home on the Hill
TTITLE12=Salty Dog Blues
TTITLE13=Dig a Hole in the Medow
TTITLE14=Cumberland Gap
EXTD=
EXTT0=
EXTT1=
EXTT2=
EXTT3=
EXTT4=
EXTT5=
EXTT6=
EXTT7=
EXTT8=
EXTT9=
EXTT10=
EXTT11=
EXTT12=
EXTT13=
EXTT14=
PLAYORDER=
